<?xml version="1.0" encoding="UTF-8"?><svg id="a" xmlns="http://www.w3.org/2000/svg" viewBox="0 0 128 128"><defs><style>.b{fill:#fff;}.c{fill:#89df00;}</style></defs><rect width="128" height="128" rx="14" ry="14"/><path class="b" d="m106.96,64.43l-7.22,18.48-8.84-18.91-12.68,5.93,14.48,30.99-.91,2.32c-1.09,2.76-1.59,2.76-2.5,2.76h-1.07c-3.87,0-7,3.13-7,7h0c0,3.87,3.13,7,7,7h1.07c7.26,0,12.49-3.91,15.53-11.65l15.18-38.82-13.04-5.1Z"/><path class="c" d="m82.77,64c-3.87,0-7.01-3.14-7.01-7.01v-29.44l-2.13,2.14c-2.73,2.74-7.17,2.74-9.91,0-2.74-2.73-2.74-7.17,0-9.91l11.47-11.79,14.58,5.84v43.15c0,3.87-3.12,7.01-6.99,7.01Zm30.24,0c-3.87,0-7.01-3.14-7.01-7.01v-29.44l-2.13,2.14c-2.73,2.74-7.17,2.74-9.91,0-2.74-2.73-2.74-7.17,0-9.91l11.47-11.79,14.58,5.84v43.15c0,3.87-3.12,7.01-6.99,7.01Z"/><path class="b" d="m38.33,46.31c9.76,0,17.69,7.94,17.69,17.69s-7.94,17.69-17.69,17.69-17.69-7.94-17.69-17.69,7.94-17.69,17.69-17.69m0-12.64c-16.75,0-30.33,13.58-30.33,30.33s13.58,30.33,30.33,30.33,30.33-13.58,30.33-30.33-13.58-30.33-30.33-30.33h0Z"/><circle class="c" cx="38.33" cy="64" r="11.23"/><circle cx="36.44" cy="62.11" r="5.97"/><circle class="b" cx="33.88" cy="59.54" r="3.37"/></svg>